<svg width="38" height="36" viewBox="0 0 38 36" fill="none" xmlns="http://www.w3.org/2000/svg">
<g id="Icon">
<ellipse id="Oval" opacity="0.15" cx="18.2351" cy="18" rx="18.1765" ry="18" fill="#F19094"/>
<path id="Icon_2" d="M15.8095 23.7363L10.869 18.873C10.7309 18.7363 10.6619 18.5605 10.6619 18.3457C10.6619 18.1308 10.7309 17.9551 10.869 17.8183L11.9636 16.7637C12.1016 16.6074 12.2742 16.5293 12.4813 16.5293C12.6884 16.5293 12.8708 16.6074 13.0286 16.7637L16.342 20.0449L23.4422 13.0137C23.5999 12.8574 23.7824 12.7793 23.9895 12.7793C24.1966 12.7793 24.3691 12.8574 24.5072 13.0137L25.6018 14.0684C25.7399 14.2051 25.8089 14.3809 25.8089 14.5957C25.8089 14.8105 25.7399 14.9863 25.6018 15.123L16.8745 23.7363C16.7365 23.8926 16.5589 23.9707 16.342 23.9707C16.125 23.9707 15.9475 23.8926 15.8095 23.7363Z" fill="#F19094"/>
</g>
</svg>
